<?xml version="1.0" encoding="utf-8"?>
<!-- Generator: Adobe Illustrator 16.0.0, SVG Export Plug-In . SVG Version: 6.00 Build 0)  -->
<!DOCTYPE svg PUBLIC "-//W3C//DTD SVG 1.1//EN" "http://www.w3.org/Graphics/SVG/1.1/DTD/svg11.dtd">
<svg version="1.1" id="Layer_1" xmlns="http://www.w3.org/2000/svg" xmlns:xlink="http://www.w3.org/1999/xlink" x="0px" y="0px"
	 width="457.2px" height="111.6px" viewBox="0 0 457.2 111.6" enable-background="new 0 0 457.2 111.6" xml:space="preserve">
<path d="M74.561,95.781c-0.632,0.453-2.502,0.492-2.759,1.189c-0.168,0.275,0.059,0.648-0.055,0.92
	c-0.354,0.857-0.848,0.73-0.756,2.057c0.264,0.17,0.59,0.471,0.811,0.701h0.542c0.145-0.225,0.316-0.324,0.702-0.324
	c0.173,0.172,0.525,0.465,0.757,0.543c0.774,0.26,1.009-0.385,1.731-0.219c0.62,0.146,1.383,0.268,2.001,0.49
	c0.205,0.07,0.681,0.291,0.975,0.215c0.45-0.117,0.602-0.645,0.972-0.812c0.712-0.322,1.844-0.146,2.65-0.326
	c0.699-0.154,1.484,0.15,2,0.273c0.558-0.037,1.121-0.076,1.675-0.107c0.857,0.193,1.471,0.682,2.435,0.703v-0.055h0.055
	c0.024-0.205-0.032-0.674,0.054-0.92c0.084-0.244,0.248-0.195,0.271-0.594c-0.237-0.182-0.474-0.535-0.758-0.65
	c-0.608-0.256-1.188-0.062-1.784-0.217c-0.432-0.162-0.863-0.324-1.298-0.488c-0.715-0.207-1.401,0.658-1.516,0.541
	c-0.275-0.113-0.199-0.264-0.647-0.27c-0.227-0.143-0.513,0.043-0.758,0c-0.204-0.035-0.86-0.164-1.026-0.271
	c-0.306-0.189-0.66-0.686-0.812-1.027c-0.017-0.09-0.034-0.178-0.054-0.27c-0.105-0.154-1.081-0.6-1.298-0.648
	c-0.175-0.041-0.419,0.078-0.539,0.107c-0.311,0.074-0.495,0.002-0.757,0.107c-0.296,0.123-0.699,0.617-1.3,0.434
	c-0.518-0.162-0.462-0.785-0.812-0.973C75.121,95.762,74.845,95.773,74.561,95.781 M11.116,81.072
	c-0.442,0.289-1.001,0.268-1.513,0.484c-0.32,0.137-0.405,0.467-0.65,0.65c-0.42,0.309-0.817-0.027-0.812,0.756
	c0.453,0.113,0.877,0.117,1.298,0.268c0.198,0.074,0.492,0.32,0.704,0.383c0.35,0.104,1.25-0.254,1.569-0.326
	c0.125-0.145,0.252-0.287,0.377-0.434c0.011-0.512-0.223-0.617-0.324-0.918c-0.133-0.395,0.195-0.645-0.271-0.811
	C11.411,81.068,11.274,81.07,11.116,81.072 M57.036,70.9c-0.041,0.504-0.754,0.662-1.298,0.65
	C55.758,70.885,56.444,70.84,57.036,70.9 M54.71,68.953c-0.492,0.297-1.125,0.055-1.786,0.219c-0.826,0.203-1.866,0.322-2.648,0.648
	c-0.536,0.221-1.165,0.506-1.677,0.811c-0.446,0.264-0.673,0.871-0.975,1.299c-0.049,0.072-1.229,0.609-1.351,0.65
	c-0.713,0.225-1.012-0.467-1.298-0.598h-1.298c-0.449,0.262-1.109-0.139-1.622,0c-0.632,0.172-1.493,0.248-2.11,0.488
	c-1.106,0.426-2.114,1.297-3.245,1.729c-0.253,0.039-0.506,0.074-0.757,0.109c-0.33,0.104-0.702,0.314-1.029,0.432
	c-0.387,0.141-0.716,0.117-1.081,0.273c-0.593,0.25-1.041,0.756-1.731,0.918c-0.32,0.074-0.733-0.18-1.19-0.055
	c-0.495,0.137-1.033,0.449-1.514,0.596c-0.342-0.018-0.685-0.035-1.029-0.055c-0.32,0-0.542,0.057-0.756,0.107
	c-0.468,0.02-0.937,0.037-1.405,0.055c-0.642,0.146-1.203,0.34-1.732,0.488c-0.685,0.035-1.37,0.072-2.055,0.107
	c-0.404,0.102-1,0.236-1.406,0.326c-0.418,0.092-0.697-0.188-1.136-0.055c-0.341,0.1-0.68,0.367-1.028,0.486
	c-0.861,0.293-1.814,0.355-2.651,0.703c-0.493,0.205-1.026,0.775-1.405,1.135c-0.022,0.59-0.022,1.576,0.27,2.055
	c0.164,0.264,0.486,0.414,0.651,0.648c0.123,0.18,0.112,0.457,0.269,0.598c0.114,0.1,0.359,0.078,0.434,0.215
	c0.097,0.182-0.053,0.326,0.107,0.434c0.138,0.09,0.286,0.031,0.434,0.107c0.152,0.08,0.268,0.312,0.432,0.377
	c0.43,0.18,0.723,0.184,1.19,0.326c0.533,0.164,1.12,0.449,1.675,0.596c0.48,0.125,1.027-0.088,1.353-0.162
	c0.776-0.18,1.819,0.107,2.488,0.271c0.281,0.066,0.593-0.061,0.812,0.053c1.225,0.631,2.63,1.264,3.732,2.055
	c0.303,0.219,0.492,0.557,0.757,0.811c0.174,0.17,0.454,0.234,0.648,0.379c0.354,0.264,0.616,0.725,0.976,0.975
	c0.512,0.357,1.153,0.791,1.729,1.027c0.745,0.305,1.811,0.109,2.489-0.053h0.757c0.242-0.055,0.747-0.104,1.027-0.164h0.92
	c0.58-0.143,1.27-0.441,1.839-0.541c0.754-0.129,1.291,0.502,1.784,0.705c0.239,0.096,0.613,0.162,0.812,0.217
	c0.603,0.156,2.047-0.025,2.434-0.111c0.813-0.18,1.673,0.35,2.651,0.111c0.887-0.221,0.928-0.76,1.513-1.084
	c0.364-0.201,0.701-0.143,0.92-0.541c0.183-0.33,0.066-0.848,0.27-1.137c0.191-0.266,0.619-0.283,0.811-0.541
	c0.22-0.318-0.115-0.709,0.379-0.809c0.263,0.357,0.868,0.125,1.354,0.268c0.252,0.076,0.55,0.332,0.757,0.488
	c0.155,0.117,0.134,0.359,0.27,0.486c0.093,0.09,0.264,0.039,0.325,0.162v0.434c0.054,0.121,0.292,0.273,0.379,0.377
	c0.339,0.408,0.502,1.02,0.81,1.463c0.074,0.104,0.232,0.129,0.326,0.217c0.566,0.527,1.086,0.988,1.729,1.459
	c0.376,0.273,0.375,0.65,1.026,0.705c0.082-0.059,0.237-0.051,0.328-0.111c0.13-0.088,0.317-0.363,0.43-0.486
	c0.953-0.061,1.111,0.312,1.623,0.809c0.127,0.094,0.252,0.184,0.379,0.273c0.186,0.242,0.323,0.617,0.596,0.76
	c0.332,0.168,0.913-0.102,1.297,0.051c0.093,0.037,0.238,0.219,0.324,0.27c0.325,0.197,0.856,0.385,1.189,0.49
	c0.436,0.133,1.12-0.082,1.515,0c0.442,0.09,1.138,0.824,1.784,0.377c0.276-0.096,1.086-0.98,1.192-1.242
	c0.154-0.383,0.134-2.451,0.053-2.816v-1.242c-0.09-0.344-0.333-0.955-0.27-1.406c0.173-1.188,0.225-2.789,0.54-4.109v-1.732
	c0.266-1.203,0.252-2.613-0.053-3.732c-0.133-0.482-0.021-1.125-0.108-1.514c-0.053-0.232,0.041-0.484,0.054-0.646
	c0.057-0.617-0.014-3.178-0.216-3.518c-0.192-0.318-1.451-0.148-1.786-0.215c-0.421-0.088-0.72-0.443-1.083-0.596
	c-0.396-0.168-0.794-0.055-1.297-0.162c-0.141-0.033-0.533-0.121-0.756-0.055c-0.39,0.111-0.517,0.436-0.976,0.488
	c-0.09-0.092-0.3-0.121-0.377-0.217c-0.17-0.217-0.165-0.535-0.324-0.758c-0.127-0.092-0.252-0.18-0.379-0.27
	c-1.182-0.023-1.568,0.736-2.326,1.135c-0.495,0.26-0.901,0.248-1.516,0.434c-0.478,0.141-1.065,0.426-1.568,0.592
	c-0.198,0.037-0.396,0.072-0.595,0.111c-0.976,0.41-1.99,0.982-2.867,1.512c-0.162,0.055-0.323,0.109-0.485,0.164
	c-0.723,0.455-1.829,1.09-3.029,0.863c-0.119-0.213-0.276-0.539-0.379-0.756c-0.386-0.82,0.123-1.148,0.595-1.461
	c0.155-0.1,0.301-0.299,0.488-0.379c0.89-0.373,2.387-0.449,2.864-1.188c0.279-0.432-0.012-0.869,0.108-1.244
	c0.1-0.305,0.61-0.973,0.866-1.137c0.554-0.355,2.117-0.102,2.216-0.867c-0.083-0.061-0.043-0.057-0.16-0.107
	C55.951,68.832,55.103,68.947,54.71,68.953 M68.557,68.088c-0.857,0.678-1.898,1.102-3.083,1.461
	c-0.524,0.16-1.063-0.08-1.083,0.596h0.107c0.359,0.24,1.188,0.176,1.624,0.055c0.856-0.242,2.979-1.027,3.084-1.895
	C69.019,68.127,68.963,68.078,68.557,68.088 M71.963,63.438c-0.22,0.668,0.231,1.34,0,2c-0.059,0.174-0.303,0.305-0.377,0.488
	c-0.072,0.557-0.144,1.119-0.218,1.676c0.112,0.539,0.403,1.018,0.434,1.514c-0.525,0.486-0.335,1.215-0.164,1.893
	c0.6,0.264,1.41,0.203,2.002,0.055c0.425-0.102,0.786,0.066,1.136,0c0.336-0.061,0.626-0.117,1.028-0.213
	c0.363-0.092,1.079-0.301,1.514-0.219c0.342,0.066,0.642,0.24,0.919,0.326c0.314,0.094,0.55-0.025,0.81,0.105
	c0.229,0.115,0.441,0.355,0.756,0.434c0.473,0.117,1.138-0.035,1.464-0.107h0.648c0.392-0.092,0.8-0.158,1.351-0.162
	c0.163-0.002,0.337-0.072,0.436-0.055c0.121,0.021,0.314,0.227,0.431,0.27c0.687,0.256,1.921,0.119,2.38-0.215
	c0.041-0.059,0.035-0.053,0.053-0.164c-0.325-0.148-0.912-0.131-1.35-0.213c-0.45-0.746-1.055-1.166-1.731-1.678
	c-0.289-0.324-0.579-0.65-0.867-0.975c-0.091-0.02-0.18-0.035-0.272-0.055c-0.087-0.107-0.179-0.215-0.269-0.324
	c-0.246-0.143-0.524-0.121-0.757-0.27c-0.204-0.133-0.445-0.346-0.702-0.434c-0.181-0.018-0.362-0.037-0.543-0.055
	c-0.086-0.031-0.234-0.186-0.322-0.215c-0.199-0.064-0.481,0.092-0.599,0.055c-0.103-0.041-0.195-0.277-0.323-0.326
	c-0.198-0.018-0.394-0.035-0.594-0.053c-0.282-0.109-0.598-0.391-0.919-0.488c-0.172-0.051-0.391,0.043-0.486,0.055
	c-0.331,0.043-0.644-0.109-0.921-0.217c-0.419-0.164-1.085-0.693-1.458-0.975c-0.094-0.107-0.181-0.217-0.272-0.322
	c-0.373-0.25-1.2-0.355-1.514-0.596C72.372,63.752,72.564,63.5,71.963,63.438 M71.586,51.918c-0.098,0.296-0.228,0.502-0.163,0.864
	c0.703,0.173,1.022,0.8,1.731,0.919c0.033-0.093,0.047-0.171,0.053-0.324c-0.072-0.198-0.143-0.396-0.215-0.595
	c-0.219-0.328-0.642-0.584-0.919-0.864H71.586z M64.554,52.782v0.216c0.139,0.083,0.321,0.228,0.486,0.271
	c0.369,0.098,0.577-0.178,0.758-0.106c0.47,0.132,1.132,0.533,1.298,0.973c0.165,0.432,0.145,0.787,0.377,1.135
	c0.181,0.146,0.363,0.29,0.542,0.434c0.126,0.197,0.016,0.457,0.11,0.701c0.078,0.219,0.388,0.381,0.54,0.541h0.27
	c0.041-0.121,0.055-0.293,0.055-0.486c-0.116-0.215,0.053-0.839,0.053-1.242c-0.017-0.992-0.036-1.983-0.053-2.975
	c0.087-0.375,0.249-1.369,0-1.731c-0.071-0.048-0.134-0.048-0.27-0.053c-0.271,0.402-0.862,0.521-1.247,0.811
	c-0.167,0.128-0.198,0.306-0.323,0.486C66.647,52.476,65.81,52.782,64.554,52.782 M64.174,52.782
	c-0.033-0.628-0.53-0.739-0.595-1.459c0.252-0.164,0.473-0.467,0.489-0.865c-0.889-0.025-1.449,0.388-2.056,0.646
	c-0.379,0.163-0.733,0.072-0.758,0.597c0.18,0.044,0.296,0.172,0.434,0.217c0.397,0.127,0.746-0.043,1.081,0.106
	C63.289,52.255,63.378,52.756,64.174,52.782 M70.557,32.824c-0.216,0.196-0.328,0.146-0.323,0.595
	c0.187,0.179,0.243,0.227,0.647,0.215c0.092-0.167,0.116-0.35,0.11-0.648c-0.044-0.055-0.02-0.015-0.054-0.108
	C70.837,32.843,70.725,32.828,70.557,32.824 M70.613,30.817h-0.271c-0.069,0.277-0.109,1.164-0.107,1.574
	c0.146,0.079,0.411,0.107,0.668,0.108c0.035-0.102,0.052-0.21,0.055-0.377C70.845,31.963,70.638,31.046,70.613,30.817
	 M22.691,27.361c-0.587,0.978-0.185,2.197,0.377,2.975c0.341,0.469,0.809,0.821,1.462,0.973h0.757
	c0.088,0.027,0.235,0.184,0.323,0.218c0.537,0.198,1.207,0.249,1.731,0.378c0.304,0.019,0.613,0.036,0.92,0.052
	c0.46,0.104,1.219,0.302,1.838,0.165c0.5-0.113,0.933-0.275,1.406-0.38v-0.215c-0.55-0.211-1.229-0.374-1.839-0.541
	c-0.415-0.037-0.829-0.072-1.244-0.11c-0.695-0.206-1.365-0.631-1.947-0.972c-0.199-0.073-0.396-0.145-0.594-0.217
	c-0.44-0.273-0.831-0.681-1.245-0.975c-0.193-0.136-0.404-0.183-0.594-0.324C23.61,28.073,23.393,27.394,22.691,27.361
	 M69.043,25.252h0.453c0.056-0.158,0.057-0.416,0.056-0.649c-0.044-0.055-0.202-0.198-0.239-0.291
	c-0.08-0.029-0.092,0.147-0.214,0.129C69.031,24.635,69.04,24.975,69.043,25.252 M26.423,19.41
	c-0.958,0.771-3.154,1.337-3.139,2.975c0.159,0.193,0.312,0.548,0.379,0.811v0.919c0.104,0.415,0.348,1.064,0.541,1.461
	c0.156,0.317,1.476,0.853,1.84,1.136c0.27,0.21,0.425,1.125,0.81,1.407c0.526,0.383,1.358,0.7,2.056,0.865
	c0.356,0.085,0.763-0.194,1.028-0.109c0.09,0.109,0.181,0.216,0.27,0.326c0.236,0.157,0.419,0.068,0.756,0.161
	c0.127,0.036,0.307,0.182,0.434,0.218c0.444,0.124,2.435-0.354,2.757-0.489c0.44-0.183,1.015-0.475,1.408-0.757
	c0.191-0.138,0.345-0.41,0.542-0.541c0.324-0.107,0.647-0.215,0.972-0.324c0.182-0.139,0.232-0.46,0.434-0.595
	c0.331-0.22,0.76-0.21,1.081-0.433c0.39-0.269,0.5-0.92,0.704-1.407c0.294-0.702,0.78-1.279,0.379-2.271
	c-0.238-0.107-0.576-0.179-0.812-0.324c-0.221-0.136-0.432-0.408-0.704-0.489c-0.437-0.124-0.914,0.099-1.19,0.164
	c-0.438,0.104-0.646-0.193-1.027-0.107c-0.226,0.05-0.488,0.26-0.866,0.161c-0.417-0.108-1.055-0.181-1.46-0.377
	c-0.143-0.071-0.344-0.223-0.54-0.273c-0.686,0.037-1.371,0.074-2.056,0.109c-0.611-0.188-1.233-0.701-1.838-0.864
	c-0.235,0.018-0.47,0.035-0.705,0.053c-0.296-0.062-0.851-0.333-1.135-0.486c-0.348-0.187-0.346-0.713-0.704-0.866
	C26.576,19.42,26.548,19.423,26.423,19.41 M30.263,19.194c-0.082,0.116-0.096,0.104-0.108,0.325c0.043,0.055,0.02,0.014,0.054,0.109
	c0.284,0.165,0.679,0.492,0.974,0.595c0.138,0.046,1.327,0.23,1.406,0.216c0.125-0.025,0.44-0.102,0.65-0.053
	c0.522,0.12,1.041,0.211,1.784,0.214c0.033-0.093,0.049-0.169,0.054-0.323h-0.054v-0.054c-0.25-0.027-0.45-0.177-0.757-0.109
	c-0.146,0.033-0.39,0.186-0.649,0.109C32.536,19.895,31.681,19.239,30.263,19.194 M33.777,16.759
	c-0.129,0.083-0.344,0.006-0.539,0.055c-0.223,0.057-0.483,0.288-0.65,0.325c-0.515,0.117-1.109-0.395-1.786-0.271
	c-0.029,0.087-0.042,0.13-0.053,0.271c0.493,0.116,0.99,0.406,1.46,0.542c0.548,0.154,0.999-0.057,1.514,0.106
	c0.34,0.109,0.766,0.366,1.082,0.486c0.451,0.108,0.903,0.218,1.353,0.325c0.301,0.136,0.417,0.458,0.648,0.649
	c0.128,0.107,0.297,0.118,0.433,0.216c0.833,0.604,0.728,0.914,2.271,0.921c0.075-0.138,0.104-0.189,0.109-0.434
	c-0.061-0.075-0.082-0.155-0.109-0.27c-0.167-0.103-0.322-0.278-0.487-0.378c-0.442-0.272-1.332-0.351-1.514-0.867
	c-0.092-0.148-0.014-0.497-0.109-0.649c-0.196-0.319-0.455-0.239-0.863-0.378C35.695,17.123,34.967,16.761,33.777,16.759
	 M68.936,8.756c-0.577,0.391-1.447,0.406-2.166,0.647c-0.846,0.287-1.975,0.575-2.865,0.812c-0.418,0.111-0.678,0.033-1.083,0.163
	c-0.36,0.197-0.721,0.396-1.081,0.595c-0.326,0.072-0.65,0.143-0.974,0.216c-0.855,0.363-1.115,1.461-1.893,1.947
	c-0.614,0.383-1.338,0.673-2.056,0.92c-0.163,0.018-0.326,0.035-0.486,0.054c-0.742,0.265-1.497,0.599-2.22,0.865
	c-0.426,0.156-0.75,0.132-1.189,0.271c-0.765,0.242-1.47,0.816-2.271,0.919c-0.102,0.013-0.354-0.093-0.433-0.107
	c-0.118-0.025-2.018,0.004-2.218,0.054c-0.166,0.041-0.441,0.174-0.597,0.215c-0.446,0.119-2.29-0.276-2.703-0.378h-2.11
	c-0.274-0.062-0.905-0.107-1.19-0.108c-0.187,0-0.496,0.114-0.758,0.054c-0.737-0.167-2.041-0.274-2.92-0.108
	c-0.035,0.102-0.051,0.211-0.054,0.378c0.095,0.071,0.127,0.206,0.216,0.27c0.325,0.228,0.957,0.351,1.191,0.649
	c0.14,0.18,0.096,0.561,0.27,0.703c0.281,0.227,0.755,0.202,0.974,0.486c0.19,0.248,0.252,0.544,0.432,0.812
	c0.166,0.244,0.449,0.436,0.649,0.649c1.173,0.019,2.761-1.015,3.678-1.405c0.342-0.146,0.574-0.1,0.974-0.217
	c0.881-0.256,1.987-0.688,2.92-0.919c1.244-0.309,2.124,0.594,3.192,0.325c0.39-0.098,1.834-0.54,2.219-0.488
	c0.66,0.093,1.298,0.189,1.892,0.326h1.622c0.388,0.084,0.882,0.059,1.3,0.053c0.107,0.019,0.215,0.036,0.323,0.054
	c0.118-0.03,0.279-0.181,0.379-0.216c0.179-0.017,0.361-0.036,0.542-0.054c0.065-0.028,0.188-0.188,0.269-0.216
	c0.38-0.133,0.691-0.053,1.029-0.217c0.032-0.015,0.115-0.146,0.162-0.162c0.162-0.055,1.363-0.185,1.459-0.162
	c0.204,0.049,0.53,0.283,0.811,0.109c0.213-0.079,0.226-0.222,0.38-0.326c0.297-0.202,0.661-0.254,0.865-0.541
	c0.131-0.181,0.143-0.409,0.271-0.595c0.365-0.532,1.071-0.768,1.298-1.46c0.018-0.271,0.036-0.542,0.054-0.812
	c-0.012-0.042-0.155-0.176-0.163-0.216c-0.064-0.286,0.214-0.372,0.271-0.54c0.222-0.66-0.227-1.474,0.647-1.517
	c0.184,0.114,1.233,0.112,1.462,0.163c0.328,0.513,0.749,0.873,0.919,1.568c0.147,0.606-0.261,1.072-0.378,1.514
	c-0.164,0.615-0.012,1.197,0.052,1.676c0.035,0.258-0.107,0.57-0.052,0.866c0.052,0.019,0.106,0.036,0.162,0.054
	c0.23,0.146,0.504-0.062,0.702-0.108c0.385-0.088,0.751,0.269,1.189,0.108c0.08-0.028,0.785-0.562,0.866-0.648
	c0.271,0.051,0.521-0.03,0.758,0.053c0.583,0.202,1.367,0.579,1.949,0.758c0.628,0.193,1.188-0.368,1.784-0.271
	c0.719,0.117,1.499-0.081,2.217-0.27h0.756c0.749-0.175,1.581-0.271,2.487-0.378c0.136-0.192,0.383-0.322,0.489-0.541
	c0.146-0.313,0.127-0.618,0.325-0.866c0.085-0.053,0.179-0.107,0.27-0.162c0.081-0.137,0.02-0.31,0.109-0.433
	c0.125-0.177,0.276-0.056,0.486-0.163c0.087-0.125,0.181-0.252,0.271-0.379c0.051-0.571-0.061-1.558-0.542-1.731
	c-0.3-0.186-1.018,0.024-1.298,0.108c-0.387,0.116-0.682,0.292-1.03,0.433c-0.479,0.196-1.006,0.237-1.512,0.378
	c-0.263,0.071-0.736,0.27-1.085,0.164c-0.282-0.09-0.645-0.301-0.972-0.379c-0.383-0.093-0.746,0.048-1.026,0
	c-0.546-0.097-1.259-0.281-1.675-0.541c-0.601-0.375-0.945-1.048-1.355-1.625c-0.071-0.054-0.144-0.108-0.216-0.162
	c-0.143-0.249-0.137-0.513-0.377-0.649c-0.521-0.293-1.322-0.015-2.002-0.162c-0.231-0.049-0.615-0.171-0.918-0.108
	c-0.113,0.024-0.398,0.097-0.595,0.053C69.698,8.794,69.335,8.756,68.936,8.756 M22.15,32.553c-0.246-0.133-0.56-0.545-0.65-0.811
	v-0.974c-0.103-0.457-0.264-1.064-0.378-1.515c-0.102-0.41-0.038-0.921-0.107-1.297c-0.067-0.367,0.167-0.859,0.054-1.299
	c-0.136-0.529-0.069-0.777,0.053-1.243c0.107-0.406-0.111-0.887-0.053-1.189v-1.568c0.053-0.239,0.167-0.57,0.216-0.758
	c0.137-0.516-0.054-1.024,0.108-1.46c0.256-0.692,0.913-0.932,1.298-1.461c0.512-0.705,1.198-1.271,1.946-1.729
	c0.208-0.127,0.458-0.135,0.65-0.271c0.219-0.155,0.382-0.436,0.595-0.595c0.544-0.411,1.104-0.808,1.568-1.298
	c0.625,0.009,1.691,0.369,2.164,0.271c0.394-0.083,0.918-0.028,1.297-0.162c0.238-0.083,0.543-0.3,0.812-0.38
	c0.271-0.018,0.541-0.035,0.812-0.054c0.168-0.045,0.447-0.169,0.649-0.216c0.676-0.156,1.2,0.262,1.783,0.109
	c0.222-0.057,0.597-0.037,0.867-0.109c0.451-0.119,1.189-0.458,1.838-0.324c0.3,0.063,0.823-0.028,1.191,0.056
	c0.972,0.216,2.083,0.177,3.137,0.322c0.61,0.087,1.531-0.151,2.11-0.054c0.434,0.073,1.123-0.051,1.623,0.054
	c1.078,0.23,2.662,0.161,3.624-0.054c0.594-0.131,1.055,0.144,1.676,0c0.909-0.209,2.078-0.259,3.082-0.593
	c0.438-0.147,0.895-0.486,1.301-0.65c0.694-0.279,1.405-0.368,2-0.757c0.386-0.253,0.552-0.776,0.917-1.026
	c0.208-0.141,0.406-0.183,0.596-0.326c0.214-0.161,0.353-0.461,0.595-0.594c0.089-0.019,0.18-0.036,0.271-0.056
	c0.107-0.071,0.124-0.236,0.216-0.324c0.128-0.125,0.872-0.619,1.027-0.704c0.605-0.32,1.375-0.349,2.055-0.595
	c0.48-0.173,0.98-0.557,1.461-0.702c0.548-0.165,1.035-0.052,1.621-0.217c0.336-0.095,0.684-0.362,0.975-0.487
	c0.472-0.203,0.896-0.09,1.459-0.216c0.519-0.117,1.337-0.391,2.111-0.217c0.712,0.159,1.333,0.269,2.055,0.433
	c0.804,0.182,1.635,0.003,2.163,0.432c0.058,0.145,0.107,0.289,0.162,0.434c0.092,0.072,0.18,0.144,0.271,0.215
	c0.32,0.47,0.459,1.081,0.868,1.461c0.169,0.16,1.565,0.562,1.893,0.649h0.756c0.281,0.098,0.486,0.452,0.812,0.541
	c0.682,0.19,1.658-0.479,1.997-0.704c0.373-0.243,0.872-0.286,1.247-0.54c0.193-0.13,0.243-0.347,0.378-0.542
	c0.442-0.633,1.368-0.95,2.379-0.702c0.3,0.459,0.584,0.84,0.595,1.622c0.229,0.137,0.53,0.289,0.759,0.433
	c-0.036,0.094-0.011,0.053-0.055,0.107c-0.136,0.333-0.57,0.401-0.705,0.757c-0.166,0.45,0.241,0.866,0.054,1.406
	c-0.056,0.161-0.27,0.293-0.323,0.488c-0.128,0.457,0.206,0.801,0.164,1.081c-0.055,0.351-0.316,0.607-0.328,1.136
	c0.527-0.009,0.746-0.176,1.138-0.271c0.452-0.018,0.901-0.037,1.351-0.055c0.196-0.051,0.419-0.261,0.705-0.215
	c0.263,0.043,1.216,0.31,1.405,0.433c0.125,0.082,0.222,0.259,0.38,0.325c0.266,0.055,0.539,0.109,0.81,0.162
	c0.554,0.233,1.073,0.673,1.568,0.974c0.797,0.488,1.884,0.46,2.326,1.298c0.583,1.109,0.38,2.315,0.704,3.678v0.648
	c0.242,1.059,0.569,2.122,0.812,3.084c0.094,0.377,0.142,0.968,0.16,1.299v0.864c0.082,0.302,0.228,1.131,0.163,1.515
	c-0.021,0.126-0.098,0.437-0.052,0.649c0.03,0.147,0.11,0.525,0.052,0.757c-0.075,0.301-0.247,0.604-0.323,0.92
	c-0.018,0.361-0.041,0.72-0.054,1.082c-0.208,0.748-0.797,1.799-0.542,2.92c0.403,1.784,0.246,3.901,0.649,5.733v1.082
	c0,0.735,0.027,1.43,0.163,1.949v1.188c0.125,0.579,0.065,1.479,0.162,2.11c-0.245,0.624-0.322,1.613-0.325,2.38v1.298
	c-0.279,1.293-0.357,3.752-0.053,5.138c-0.018,1.227-0.041,2.451-0.054,3.678c0.3,1.367,0.391,2.885,0.699,4.271
	c0.188,0.826-0.063,1.9,0.112,2.705c0.041,0.199-0.03,0.484-0.055,0.596c-0.098,0.461,0.128,0.816,0.055,1.244
	c-0.055,0.316-0.174,0.811-0.112,1.189c0.069,0.383,0.14,0.916,0.219,1.299c-0.019,0.359-0.035,0.719-0.056,1.08
	c0.248,0.916,0.373,2.133,0.165,3.084c-0.107,0.492,0.057,1.236,0,1.57c0.054,0.883,0.107,1.768,0.163,2.648
	c-0.02,0.271-0.04,0.543-0.056,0.811c0.071,0.35,0.231,0.992,0.109,1.465c-0.16,0.625-0.105,1.398,0.054,2.051v0.758
	c0.071,0.254,0.253,0.562,0.323,0.867v1.35c0.26,1.158-0.174,2.6,0.11,3.896v0.594c0.273,1.234,0.387,2.178,0.379,3.463
	c-0.005,0.527,0,1.146-0.109,1.514c-0.02,0.307-0.037,0.611-0.055,0.922c-0.111,0.334-0.853,0.783-1.083,1.242
	c-0.195,0.396-0.121,0.875-0.321,1.246c-0.177,0.322-0.572,0.578-0.702,0.918c-0.039,0.197-0.075,0.396-0.112,0.594
	c-0.142,0.229-0.459,0.303-0.648,0.486c-0.125,0.125-0.182,0.324-0.323,0.434c-0.38,0.287-0.749,0.525-1.137,0.811
	c-0.465,0.342-0.77,0.963-1.298,1.244c-0.234,0.057-0.468,0.109-0.702,0.164c-0.359,0.131-0.697,0.4-1.028,0.539
	c-0.314,0.135-0.592,0.146-0.865,0.324c-0.11,0.127-0.217,0.252-0.326,0.381c-0.54,0.365-1.157,0.531-1.785,0.811
	c-0.295,0.129-0.528,0.338-0.918,0.432h-0.812c-1.361,0.309-3.006-0.053-4.49,0.27c-0.541,0.02-1.081,0.037-1.623,0.057
	c-0.089-0.02-0.368-0.105-0.539-0.057c-0.052,0.016-0.21,0.146-0.271,0.162c-0.504,0.018-1.01,0.039-1.514,0.055
	c-1.493,0.342-2.973,0.359-4.488,0.543c-0.196,0.021-0.784-0.066-0.975-0.107c-0.208-0.045-0.524,0.029-0.648,0.051
	c-0.122,0.025-1.109-0.092-1.19-0.107c-0.639-0.119-1.458,0.139-2.001,0.057c-0.32-0.053-0.723-0.264-1.19-0.164
	c-1.229,0.262-3.292,0.459-4.599,0.271c-0.685,0.035-1.37,0.072-2.054,0.107c-0.394-0.086-0.875-0.195-1.189-0.271
	c-0.277-0.066-1.208,0.145-1.57,0.107c-0.392-0.037-0.928-0.184-1.298-0.27c-0.487-0.115-1.144-0.018-1.514-0.105h-1.514
	c-0.255-0.057-0.844-0.203-1.083-0.166c-0.079,0.014-0.307,0.154-0.379,0.166c-0.19,0.027-0.631-0.123-0.918-0.057
	c-0.478,0.111-1.299,0.074-1.892-0.055c-0.491-0.104-1.146,0.039-1.569-0.055c-0.681-0.146-1.123,0.252-1.786,0.109
	c-0.292-0.061-0.664,0.061-0.973,0c-0.654-0.125-1.833-0.125-2.488,0c-0.516,0.098-0.904-0.295-1.513-0.158
	c-1.127,0.238-2.387-0.07-3.625,0.215c-0.325-0.018-0.649-0.037-0.974-0.057c-1.543,0.338-3.43,0.193-4.975,0.488
	c-0.495,0.094-1.206-0.178-1.786-0.057c-0.799,0.172-1.8,0.148-2.489,0c-0.159-0.031-0.293,0.043-0.378,0.057
	c-0.452,0.066-0.997-0.037-1.297-0.107h-1.19c-0.943-0.25-2.373-0.391-3.409-0.164c-0.505,0.109-1.308-0.105-1.675,0
	c-0.25,0.074-0.326,0.439-0.704,0.379c-0.309-0.047-0.737-0.248-1.027-0.322H17.39c-0.36-0.094-1.033-0.193-1.352-0.273
	c-0.379,0.02-0.758,0.039-1.136,0.057c-0.771-0.203-1.943-0.148-2.705-0.328h-0.812c-0.777-0.209-1.5-0.891-2.163-1.299
	c-0.391-0.238-0.855-0.207-1.298-0.43c-0.337-0.172-0.658-0.508-0.975-0.703c-0.319-0.197-0.702-0.232-1.027-0.432
	c-0.251-0.158-0.253-0.367-0.432-0.598c-0.129-0.166-0.483-0.207-0.596-0.379c-0.017-0.107-0.036-0.215-0.054-0.324
	c-0.099-0.229-0.334-0.434-0.433-0.648c-0.134-0.295-0.091-0.588-0.216-0.918c-0.22-0.58-0.504-1.229-0.649-1.947
	c-0.094-0.469,0.234-0.949,0.108-1.516c-0.158-0.705-0.111-1.717-0.27-2.434c-0.018-0.795-0.037-1.586-0.055-2.381
	c-0.153-0.703-0.03-1.535-0.161-2.109v-1.027c-0.093-0.379,0.014-0.826-0.108-1.352c-0.306-1.305-0.454-2.869-0.542-4.326
	c-0.009-0.16,0.075-0.609,0.108-0.758v-1.301c0.125-0.586,0.092-1.398,0.216-1.947v-0.811c0.101-0.463,0.174-1.451,0.054-2
	C2.54,76.412,2.966,74.625,2.57,73.01c-0.123-0.498,0.041-1.186-0.055-1.621c0.019-0.521,0.036-1.045,0.055-1.568
	c-0.224-1.012-0.145-2.346-0.379-3.41v-0.756c-0.106-0.453-0.082-1.037-0.216-1.566c-0.438-1.727-0.818-4.477-0.487-6.762
	c0.158-1.096-0.425-1.924-0.163-3.084c0.132-0.579,0.069-1.31,0.217-1.946c0.171-0.736,0.359-1.531,0.541-2.273v-1.243
	c0.246-1.129,0.023-2.587,0.269-3.731c0.082-0.376-0.084-1.899-0.161-2.272c0.019-0.576,0.036-1.154,0.054-1.731
	c-0.039-1.092-0.054-2.371-0.27-3.353c-0.184-0.832,0.017-2.001,0.162-2.65c0.018-0.397,0.035-0.793,0.054-1.189
	c0.249-0.983,0.314-2.343,0.542-3.3c0.036-0.631,0.071-1.261,0.107-1.892c-0.018-0.145-0.036-0.29-0.054-0.434
	c0.253-1.319,0.272-2.728,0.272-4.22c-0.019-0.847-0.038-1.694-0.056-2.54c0.114-0.508,0.165-1.125,0.272-1.571v-0.648
	c0.332-1.327,0.542-2.582,0.865-3.947c0.142-0.605,0.045-1.037,0.215-1.623c0.039-0.127,0.183-0.307,0.217-0.433v-0.487
	c0.064-0.141,0.319-0.266,0.378-0.433v-0.378c0.119-0.37,0.305-0.745,0.488-1.028c0.199-0.313,0.108-0.831,0.485-0.974
	c0.101,0.146,0.128-0.028,0.379-0.02c0.035-0.102,0.051-0.03,0.055-0.197C6.219,9.647,6.186,9.647,6.139,9.458
	c0.13-0.132,0.173-0.382,0.325-0.487C6.842,8.846,7.221,8.719,7.6,8.592c0.183-0.124,0.296-0.36,0.432-0.541
	c0.13-0.169,0.307-0.197,0.487-0.326c0.34-0.236,0.584-0.679,0.919-0.918c0.18-0.128,0.385-0.106,0.595-0.216
	c0.409-0.21,0.904-0.557,1.298-0.756h0.271c0.493-0.338,0.982-0.911,1.568-1.137c0.145-0.018,0.289-0.036,0.433-0.054
	c0.182-0.071,0.392-0.264,0.595-0.325c0.198-0.019,0.397-0.036,0.595-0.054c1.005-0.331,2.166-0.77,3.191-1.082
	c0.565-0.17,1.321-0.028,1.84-0.27c0.128,0.013,0.21,0.168,0.431,0.109c0.096-0.027,0.338-0.188,0.434-0.218
	c1.027-0.017,2.055-0.036,3.083-0.055c0.8-0.152,3.063-0.055,4.058,0.164c0.234,0.05,0.493-0.071,0.648-0.054
	c0.976,0.101,2.192,0.224,3.136,0.433h1.029c1.257,0.284,2.973-0.003,4.219,0.27c0.304,0.067,0.809-0.006,1.027-0.054
	c0.827-0.181,1.727,0.059,2.488-0.107c0.532-0.118,1.099,0.077,1.515,0c1.001-0.183,2.49-0.145,3.516-0.378
	c0.719,0.018,1.442,0.035,2.163,0.054c0.478-0.104,0.895,0.069,1.461-0.054c0.698-0.154,2.133-0.163,2.758-0.055
	c0.451,0.077,1.2-0.183,1.568-0.271c0.38-0.09,0.814-0.002,1.083,0c0.869,0.012,1.681-0.005,2.38-0.161h0.919
	c0.344-0.079,0.959-0.139,1.298-0.216h0.757c0.66-0.155,1.459-0.286,2.054-0.433h1.136c0.222-0.048,0.837-0.15,1.136-0.054
	c0.131,0.042,0.305,0.223,0.433,0.27c0.29,0.107,0.845,0.048,1.137,0.108c0.468-0.018,0.937-0.036,1.405-0.055
	c0.46,0.102,1.593,0.221,2.003,0.164c0.56-0.083,1.211-0.234,1.731-0.109h1.891c1.492,0.333,3.078,0.07,4.49,0.054
	c0.678-0.007,1.474,0.022,2.108,0.162c0.32,0.069,0.74-0.078,0.972-0.054c0.59,0.061,1.315,0.153,1.787,0.271
	c0.956-0.089,1.912-0.181,2.865-0.271c0.486,0.111,1.153,0.151,1.679,0.324c0.329,0.11,0.685,0.344,1.026,0.434
	c0.495,0.129,0.883,0.04,1.299,0.215c0.26,0.11,0.551,0.373,0.811,0.489c0.477,0.209,0.892,0.193,1.405,0.378
	c0.264,0.095,0.892,0.516,1.137,0.702c0.43,0.327,0.667,0.896,0.977,1.353c0.086,0.072,0.176,0.145,0.269,0.216
	c0.152,0.238,0.057,0.505,0.161,0.812c0.062,0.177,0.266,0.343,0.325,0.54c0.036,0.541,0.071,1.082,0.109,1.623
	c0.249,0.14,0.83,0.424,0.919,0.704c0.263,0.82-0.664,1.314-0.863,1.676c-0.077,0.132,0.015,0.312-0.109,0.379h-0.866
	c-0.075-0.061-0.157-0.081-0.27-0.108c-0.115-0.325-0.469-0.425-0.595-0.758c-0.056-0.36-0.11-0.721-0.165-1.082
	c-0.071-0.206-0.26-0.452-0.322-0.702c-0.119-0.464,0.104-0.813-0.055-1.244c-0.035-0.092-0.18-0.233-0.216-0.325
	c-0.017-0.127-0.038-0.252-0.056-0.38c-0.081-0.142-0.333-0.237-0.434-0.378c-0.134-0.199-0.185-0.403-0.375-0.54
	c-0.415-0.302-0.801-0.477-1.245-0.757c-0.139-0.09-0.282-0.305-0.432-0.38c-0.068-0.033-0.53-0.113-0.542,0
	c-0.151-0.186-0.12-0.297-0.378-0.378c-0.432-0.053-0.866-0.107-1.298-0.162c-0.314-0.091-0.704-0.294-1.03-0.378h-0.97
	c-0.805-0.178-1.837-0.186-2.653-0.379c-0.678-0.161-1.742,0.018-2.271,0.107c-0.27,0.048-1.032-0.046-1.296-0.107
	c-0.438-0.101-1.037,0.031-1.407-0.053c-0.394-0.09-1.097-0.016-1.406,0.053c-0.67,0.153-1.14-0.203-1.784-0.107
	c-0.503,0.072-1.277-0.069-1.841,0.054c-0.083,0.019-0.315,0.09-0.486,0.053c-0.751-0.166-1.711-0.032-2.542-0.216
	c-0.636-0.144-1.293-0.286-1.894-0.433c-0.704-0.17-1.766,0.225-2.325,0.326c-0.217-0.02-0.435-0.037-0.651-0.055
	c-0.322,0.071-0.831,0.092-1.135,0.162c-0.325,0.075-0.838-0.017-1.081-0.054c-0.982-0.152-2.238-0.025-3.029,0.163
	c-1.351-0.02-2.705-0.037-4.056-0.056c-0.78,0.194-1.747,0.286-2.598,0.487h-1.245c-0.972,0-1.98,0.021-2.812,0
	c-0.233-0.017-0.469-0.036-0.703-0.054c-0.669,0.145-1.476-0.057-2.217,0.108c-0.553,0.122-1.524,0.32-2.216,0.162
	c-0.384-0.086-0.986-0.163-1.516-0.108c-0.882,0.09-2.034,0.208-3.192,0.216c-0.214,0.019-0.431,0.037-0.647,0.055
	c-0.515-0.101-1.198,0.046-1.893-0.055c-0.094-0.013-0.264-0.092-0.434-0.053c-0.203,0.045-0.632,0.108-0.865,0.162h-0.648
	c-0.111,0.04-0.183,0.23-0.271,0.271C33.511,5.389,32.9,5.326,32.75,5.348c-0.147,0.023-0.426-0.081-0.541-0.108
	c-0.603-0.141-1.305-0.038-1.838-0.163c-0.649,0.018-1.299,0.037-1.948,0.054c-0.362-0.082-0.864-0.042-1.297-0.162
	c-0.443-0.123-1.033-0.353-1.462-0.488h-0.433c-1.084-0.25-2.059-0.19-3.028,0.055c-0.757,0.192-1.622,0.102-2.325,0.271
	c-0.487,0.018-0.974,0.036-1.461,0.054c-0.421,0.107-1.003,0.158-1.459,0.324c-0.32,0.116-0.641,0.405-0.975,0.542
	c-0.687,0.28-1.541,0.275-2.218,0.541c-0.595,0.235-1.181,0.744-1.73,1.028c-0.162,0.036-0.324,0.072-0.486,0.107
	c-0.198,0.103-0.355,0.369-0.54,0.486c-0.258,0.163-0.566,0.161-0.812,0.326C9.774,8.496,8.564,9.4,8.303,9.782
	c-0.107,0.157-0.105,0.341-0.217,0.487c-0.333,0.442-0.893,0.772-1.188,1.246c-0.147,0.233-0.357,0.628-0.433,0.864
	c-0.093,0.289,0.153,0.547,0.107,0.703c-0.027,0.098-0.279,0.247-0.324,0.379c-0.237,0.703,0.076,1.518-0.108,2.218
	c-0.14,0.543-0.298,1.261-0.432,1.785v0.595c-0.03,0.09-0.182,0.235-0.216,0.323c-0.037,0.325-0.072,0.65-0.108,0.975
	c-0.138,0.49-0.36,0.913-0.487,1.46c-0.147,0.627,0.264,0.806,0.379,1.134c0.156,0.455-0.189,0.905-0.271,1.192
	c-0.192,0.672-0.017,1.806-0.108,2.378v0.759c-0.036,0.133-0.179,0.353-0.216,0.485c-0.206,0.734-0.05,1.598-0.218,2.326
	c-0.017,0.613-0.034,1.227-0.053,1.839c-0.176,0.779-0.197,1.778-0.108,2.542c0.011,0.104-0.091,0.256-0.108,0.326v0.864
	c-0.099,0.36-0.385,0.999-0.271,1.514c0.2,0.893-0.101,2.011,0.108,3.029c0.117,0.571,0,1.349,0,2.11
	c0,0.307,0.077,0.752,0.054,0.972c-0.083,0.826-0.11,1.876-0.269,2.542c0.017,0.306,0.036,0.613,0.054,0.92
	c-0.046,0.551-0.086,1.21-0.217,1.783c0.019,0.308,0.035,0.614,0.054,0.922c-0.007,0.585-0.043,1.375-0.162,1.894v1.404
	c-0.136,0.549-0.021,1.426-0.162,2.054c-0.331,1.477-0.417,3.992,0,5.627c0.183,0.717,0.054,1.604,0.217,2.271v1.189
	c0.305,1.154,0.189,2.672,0.485,3.84c-0.018,0.379-0.035,0.758-0.054,1.137c0.059,0.676,0.077,1.604-0.054,2.217
	c0.018,0.271,0.036,0.541,0.054,0.811c-0.149,0.693-0.038,3.002,0.163,3.787c0.156,0.615-0.003,1.455,0.108,1.949v0.916
	c0.139,0.629,0.079,1.641-0.054,2.219c-0.1,0.434-0.025,1.221,0.054,1.568c0.097,0.434-0.077,1.234-0.162,1.568
	c-0.088,0.348,0.122,0.826,0.054,1.08c-0.036,0.021-0.073,0.037-0.109,0.057c-0.159,0.475,0.076,1.166,0.109,1.514
	c-0.019,0.361-0.036,0.723-0.054,1.082c0.139,0.604,0.11,1.609,0.27,2.326c0.038,0.17-0.041,0.34-0.055,0.432
	c0.02,0.688,0.037,1.369,0.055,2.055c0.173,0.725,0.14,1.633,0.325,2.438v0.973c0.114,0.432,0.055,1.15,0.215,1.621
	c0.108,0.318,0.297,0.75,0.378,1.137c-0.017,0.254-0.035,0.502-0.052,0.758c0.286,1.182,0.696,2.35,1.189,3.301
	c0.072,0.213,0.144,0.434,0.216,0.648c0.122,0.186,1.009,1.078,1.189,1.188c0.227,0.139,0.447,0.086,0.703,0.217
	c0.98,0.488,1.999,1.156,3.084,1.572c0.325,0.049,0.65,0.104,0.975,0.158c0.759,0.219,1.655,0.459,2.486,0.652
	c0.451,0.102,0.792-0.117,1.137-0.111c0.486,0.008,1.27,0.16,1.676,0.271c0.398-0.02,0.794-0.037,1.191-0.055
	c0.345,0.078,0.746,0.191,1.082,0.27c0.155,0.037,0.364-0.043,0.433-0.053c0.116-0.023,0.92,0.059,1.136,0.107
	c0.714,0.16,1.572,0.271,2.272,0.164c0.201-0.029,0.383,0.244,0.754,0.162c0.317-0.072,0.852,0,1.084,0.053
	c0.936-0.037,1.874-0.072,2.811-0.107c0.382-0.061,1.041,0.133,1.623,0c0.645-0.148,1.317-0.379,1.948-0.541
	c0.459-0.119,1.17,0,1.568-0.055c0.18,0.035,0.361,0.074,0.541,0.105c0.628,0.062,1.351,0.066,1.786-0.051
	c0.506-0.137,1.228,0.049,1.677-0.055c1.192-0.271,2.015,0.471,3.083,0.217c0.712-0.17,1.798-0.086,2.596-0.27h0.542
	c0.177-0.047,0.469-0.186,0.648-0.217c0.108,0.02,0.216,0.033,0.325,0.053c0.63-0.02,1.262-0.033,1.893-0.053
	c0.813-0.176,1.988-0.135,2.812,0.053c0.604,0.139,1.493,0.008,1.893-0.053c0.143-0.023,0.523,0.121,0.757,0.053
	c0.109-0.033,0.24-0.205,0.433-0.162c0.092,0.023,0.272,0.184,0.377,0.217c0.254,0.018,0.505,0.039,0.759,0.057
	c0.181,0.064,0.389,0.27,0.593,0.322c0.206,0.053,0.248-0.082,0.326-0.111c0.045-0.016,1.523,0.076,1.677,0.111
	c2.002,0.461,5.098,0.33,7.139,0.053c0.195-0.025,0.58,0.082,0.865,0.055c1.088-0.1,2.226,0.07,3.136-0.107
	c0.544-0.107,1.196,0.062,1.57,0.162c0.445,0.119,1.348,0,1.947,0c0.853,0,1.567-0.129,2.326-0.109
	c0.948,0.029,2.234,0.1,3.031-0.109c0.127-0.031,1.477-0.018,1.568,0c0.165,0.041,0.43,0.186,0.7,0.109
	c0.411-0.109,0.979-0.326,1.408-0.432h0.972c0.112-0.012,0.202-0.09,0.269-0.107c0.136-0.029,0.913,0.121,1.085,0.164
	c0.509,0.115,1.031-0.084,1.351-0.164c0.269,0.02,0.541,0.033,0.814,0.053c0.365-0.092,0.912-0.227,1.296-0.322h0.595
	c0.309-0.086,0.655-0.346,0.919-0.434c0.199,0.018,0.397,0.035,0.595,0.057c0.061-0.021,0.178-0.146,0.215-0.166
	c0.146-0.02,0.29-0.037,0.433-0.055c0.341-0.121,0.707-0.475,1.028-0.646c0.574-0.311,1.259-0.404,1.786-0.758
	c0.301-0.203,0.537-0.582,0.865-0.76c0.385-0.209,0.746-0.281,1.083-0.539c0.018-0.053,0.034-0.109,0.054-0.162
	c0.162-0.203,0.394-0.32,0.596-0.488c0.069-0.057,0.089-0.205,0.162-0.271c0.178-0.166,0.624-0.369,0.758-0.537
	c0.176-0.221,0.217-0.582,0.431-0.756c0.168-0.143,0.483-0.191,0.593-0.383c0.11-0.186,0.041-0.432,0.163-0.594
	c0.07-0.094,0.258-0.117,0.326-0.217c0.128-0.195,0.217-0.654,0.269-0.869v-0.914c0.068-0.307,0.16-0.586,0.165-0.975V95.35
	c0.409-1.395,0.389-3.562,0.053-4.922v-0.703c-0.143-0.596-0.118-1.352-0.269-2c0.017-0.201,0.033-0.396,0.051-0.598
	c-0.105-0.68-0.142-1.654-0.269-2.324c-0.077-0.391,0.124-0.84,0-1.297c-0.063-0.234-0.174-0.662-0.217-0.977
	c-0.032-0.227,0.057-0.775,0-1.025v-0.975c-0.095-0.434-0.264-1.039-0.162-1.57c0.083-0.43-0.089-1.166-0.164-1.676
	c-0.031-0.207,0.122-0.668,0.054-0.973c-0.124-0.568,0.068-1.215-0.054-1.785c-0.007-0.039-0.104-0.273-0.106-0.326
	c-0.018-0.51,0.121-1.203,0.214-1.619c0.032-0.146-0.042-0.324-0.055-0.381c-0.042-0.215,0.076-0.445,0.11-0.594
	c0.042-0.182-0.033-0.443-0.056-0.543c-0.077-0.334,0.044-1.314,0.108-1.621c0.029-0.131-0.042-0.275-0.053-0.326v-1.08
	c-0.058-0.25-0.187-0.756-0.164-1.027c0.049-0.545-0.062-1.035,0-1.732c0.025-0.283,0.066-0.744,0-1.027
	c-0.103-0.447,0.08-0.898,0-1.244c-0.138-0.607,0.012-1.404-0.106-1.891v-1.082c-0.045-0.182-0.131-0.551-0.164-0.758
	c0.019-0.107,0.035-0.217,0.055-0.324c-0.071-0.373-0.213-0.734-0.271-1.137c-0.045-0.318,0.097-0.812,0-1.244
	c-0.105-0.48-0.098-1.149-0.217-1.677c0.02-0.29,0.038-0.576,0.056-0.866c-0.023-0.263-0.089-0.575,0-0.863
	c0.03-0.105,0.188-0.25,0.216-0.324c0.26-0.653-0.329-1.381-0.216-1.948c0.163-0.823,0.542-2.544,0.325-3.516
	c-0.329-1.485,0.001-3.204-0.325-4.598c-0.166-0.709,0.285-1.26,0.108-2c-0.198-0.827-0.418-1.644-0.596-2.489
	c-0.121-0.583,0.316-1.316,0.218-1.839c-0.089-0.473-0.124-0.971-0.271-1.459c-0.052-0.171-0.238-0.413-0.271-0.596
	c0.019-0.179,0.038-0.359,0.053-0.539c-0.02-0.259-0.188-0.555-0.107-0.92c0.079-0.353,0.16-0.639,0.163-1.082
	c1.31-0.902,1.621-2.878,1.028-4.814v-0.648c-0.116-0.486-0.208-1.173-0.325-1.678v-0.864c-0.136-0.569-0.336-1.173-0.488-1.731
	c-0.253-0.927-0.228-1.856-0.703-2.542c-0.213-0.309-1.147-1.126-1.516-1.243c-0.253-0.083-0.473,0.157-0.702,0
	c-0.036-0.073-0.071-0.146-0.107-0.217c-0.145-0.153-0.57-0.471-0.759-0.54c-0.276-0.103-0.492-0.023-0.756-0.109
	c-1.361-0.446-2.738-0.793-4.38-0.434c-0.738,0.163-1.548-0.091-2.162,0.163c-0.621,0.254-1.196,0.729-1.623,1.189
	c-0.371-0.014-0.747-0.232-1.19-0.108c-0.334,0.094-0.852,0.43-1.297,0.379c-0.146-0.016-0.326-0.172-0.435-0.216
	c-0.316-0.132-2.085-0.581-2.487-0.486c-0.349,0.083-0.647,0.004-1.027,0.108c-0.347,0.095-0.863,0.237-1.298,0.323
	c-0.291,0.06-0.407-0.109-0.704-0.108c-0.291,0.001-0.511,0.085-0.865,0c-0.321-0.075-0.684-0.153-0.919-0.323
	c-0.269-0.195-0.182-0.45-0.651-0.487c-0.134,0.087-0.481,0.061-0.703,0.054c-0.156,0.232-0.515,0.62-0.269,1.081
	c0.183,0.351,0.584,0.697,0.756,1.083c0.228,0.509,0.112,1.117,0.27,1.729c0.053,0.208,0.183,0.529,0.215,0.759
	c0.056,0.365-0.247,0.914-0.323,1.245c-0.108,0.479,0.144,1.477,0.271,1.784c0.207,0.09,0.66,0.178,0.757,0.378
	c0.017,0.163,0.035,0.324,0.055,0.487c0.188,0.343,0.993,0.7,1.405,0.811c0.777,0.212,1.544-0.335,1.84,0.378
	c0.258,0.284,0.128,0.862,0.106,1.299c-0.993,0.66-1.505,0.272-2.378-0.108c-0.396-0.173-0.794-0.087-1.191-0.216
	c-0.421-0.138-0.699-0.365-1.242-0.271v0.109c-0.48,0.747,0.531,1.199,0.649,1.567c0.133,0.426-0.131,0.722,0,1.19
	c0.105,0.373,0.418,0.831,0.54,1.189c0.136,0.402,0.042,1.125,0.053,1.622c0.247,0.156,0.489,0.267,0.759,0.434
	c0.216,0.253,0.432,0.504,0.647,0.758c0.285,0.208,0.584,0.322,0.868,0.541c0.299,0.234,0.57,0.685,0.974,0.811
	c0.252-0.018,0.504-0.036,0.756-0.054c0.333,0.101,0.531,0.367,0.973,0.271c0.737-0.16,2.093,0.251,2.38-0.432
	c0.123-0.199,0.166-0.714,0.217-0.919c0.543-0.254,1.31-0.632,1.998-0.703c0.559,0.574,1.741,1.021,1.786,2.054
	c-0.388,0.567-0.521,1.58-1.406,1.624c-0.137-0.094-0.409-0.14-0.596-0.163c-0.409,0.438-0.868,0.826-1.297,1.244
	c-0.486,0.004-1.125-0.019-1.464-0.215c-0.188-0.112-0.364-0.36-0.593-0.433c-0.671-0.217-1.164,0.472-1.675,0.539
	c-0.033,0.006-1.496-0.42-1.677-0.487c-0.34-0.125-0.725-0.492-1.082-0.648c-0.325-0.091-0.649-0.179-0.974-0.271
	c-0.29-0.193-0.31-0.535-0.756-0.594c-0.056,0.043-0.015,0.019-0.108,0.052c-0.201,0.393-0.418,0.791-0.542,1.3v0.865
	c-0.043,0.16-0.223,0.344-0.27,0.488c-0.166,0.502-0.16,1.109-0.269,1.567c0.017,0.324,0.035,0.65,0.051,0.974
	c-0.086,0.422-0.333,1.938-0.16,2.434c0.041,0.117,0.208,0.178,0.271,0.271c0.244,0.374,0.338,0.75,0.595,1.082
	c0.175,0.229,0.49,0.27,0.593,0.595c0.13,0.408-0.133,0.969-0.053,1.406c0.193,0.093,0.5,0.14,0.704,0.271
	c0.37,0.233,0.66,0.727,1.029,0.972c0.335,0.225,0.73,0.213,1.137,0.379c0.249,0.103,0.599,0.354,0.863,0.433
	c0.439,0.134,1.601-0.313,1.895-0.433c1.287-0.527,2.966-1.182,4.488-0.81c0.189,0.369,0.421,0.555,0.43,1.134
	c-0.089,0.146-0.178,0.289-0.27,0.434c-0.459,0.322-1.123,0.369-1.189,1.08c0.156,0.055,0.417,0.059,0.649,0.055
	c0.284,0.178,0.583-0.053,0.758-0.108c0.359-0.113,0.697,0.011,0.919,0.054c0.182,0.487,0.788,0.366,0.812,0.974
	c-0.044,0.064-0.042,0.091-0.055,0.216c-0.274,0.174-0.487,0.471-0.702,0.704c-0.451-0.003-0.727,0.09-1.027,0.162
	c-0.314,0.075-0.827-0.052-1.085-0.107c-0.998-0.217-2.231,0.01-3.081-0.163c-0.725-0.146-1.834,0.092-2,0.54
	c-0.047,0.065-0.044,0.093-0.055,0.217c0.271,0.155,0.937,0.295,1.135,0.543c0.284,0.353,0.202,1.051,0.379,1.514
	c0.344,0.16,0.684,0.322,1.028,0.486c0.16,0.197,0.323,0.396,0.486,0.594c0.361,0.244,0.891,0.346,1.296,0.541
	c0.146,0.072,0.257,0.273,0.435,0.326h0.756c0.486,0.121,1.072,0.199,1.514,0.324c0.18,0.051,0.371-0.021,0.489,0.053
	c0.689,0.213,0.833,1.404,0.647,2.164c-0.425,0.293-0.336,0.391-1.136,0.381c-0.228-0.145-0.56-0.104-0.809-0.219
	c-0.148-0.064-0.258-0.242-0.382-0.324c-0.466-0.309-1.007-0.387-1.565-0.594c-0.127-0.049-0.261-0.225-0.379-0.27
	c-0.267-0.105-0.658-0.158-0.866-0.219h-0.486c-0.121-0.049-0.221-0.254-0.325-0.322c-0.314-0.211-0.776-0.205-1.083-0.434
	c-0.326-0.244-0.133-0.52-0.757-0.541c-0.157,0.215-0.474,0.348-0.595,0.594c-0.121,0.254,0,0.562-0.218,0.703
	c-0.147,0.102-0.407,0.025-0.54,0c-0.125,0.02-0.25,0.037-0.375,0.055c-0.548,0.021-0.982-0.168-1.193-0.486
	c-0.575-0.744,0.533-1.604,0.704-2.002c0.106-0.256-0.001-0.482,0-0.811c-0.627-0.41-0.848-1.271-1.624-1.514
	c-1.213-0.384-1.067,1.785-1.244,2.594c-0.184,0.848,0.055,1.83,0.488,2.383c0.222,0.283,0.667,0.447,0.865,0.756
	c0.209,0.328,0.218,0.713,0.433,1.027c0.274,0.402,0.812,0.451,1.189,0.76c0.089,0.125,0.182,0.248,0.269,0.377
	c0.136,0.09,0.276,0.021,0.433,0.107c0.094,0.109,0.183,0.215,0.272,0.324c0.749,0.486,1.619,0.658,2.38,1.137
	c0.255,0.16,0.385,0.49,0.703,0.594c0.541,0.053,1.084,0.107,1.621,0.162c0.562,0.209,1.039,0.717,1.517,1.029
	c0.451,0.291,1.042,0.387,1.458,0.703c0.213,0.158,0.386,0.65,0.543,0.756c0.107,0.018,0.214,0.037,0.323,0.055
	c0.152,0.08,0.316,0.318,0.489,0.379h0.972c0.324,0.105,0.611,0.424,0.863,0.594c0.202,0.135,1.139,0.529,1.354,0.596h0.757
	c0.432-0.02,0.865-0.037,1.298-0.053c0.112-0.043,0.228-0.213,0.324-0.273c0.144-0.086,0.252-0.037,0.432-0.105
	c0.246-0.096,0.454-0.334,0.704-0.434c0.355-0.143,0.874-0.008,1.192,0.053c0.271,0.053,0.401-0.066,0.593-0.053
	c0.038,0.109-0.007,0.391,0.055,0.539c0.11,0.27,0.574,0.332,0.433,0.867c-0.184,0.689-0.773,0.92-1.137,1.408
	c-0.216,0.285-0.353,0.719-0.703,0.863c-0.779,0.324-1.823,0.084-2.703,0.324c-0.351,0.096-0.741,0.342-1.084,0.434
	c-0.715,0.193-1.701-0.07-2.435,0.109c-0.191,0.045-0.685,0.182-0.865,0.213c-0.221,0.043-0.661-0.129-0.971-0.053
	c-0.572,0.141-1.127,0.346-1.787,0.486c-0.434,0.092-2.427-0.145-2.761-0.27c-0.089-0.033-0.231-0.184-0.323-0.217
	c-0.288-0.037-0.577-0.072-0.865-0.109c-0.292-0.082-0.847-0.273-1.299-0.16c-0.388,0.098-0.809,0.377-1.134,0.486h-0.866
	c-0.851,0.229-1.022,0.1-1.786-0.109c-0.332-0.09-0.679,0.178-0.756,0.379c-0.248,0.338,0.189,1.48,0.272,1.947
	c0.033,0.195-0.163,0.996-0.219,1.244c-0.017,0.865-0.037,1.73-0.053,2.598c-0.113,0.516,0.036,1.244-0.054,1.836
	c-0.102,0.686-0.053,1.553-0.053,2.328c-0.003,0.473,0.03,1.074-0.056,1.459v0.812c-0.13,0.594-0.187,1.172-0.325,1.785
	c-0.018,0.451-0.034,0.902-0.052,1.354c-0.172,0.697-0.383,1.412-0.542,2.109c-0.035,0.771-0.071,1.547-0.107,2.322
	c-0.1,0.443-0.204,0.963-0.216,1.518c0.162,0.127,0.26,0.375,0.432,0.484c0.243,0.156,1.615,0.484,2.11,0.326
	c0.143-0.045,0.29-0.17,0.486-0.217c0.055-0.361,0.116-0.6,0.433-0.703c0.391-0.299,1.366,0.014,1.784-0.271
	c0.245-0.164,0.653-0.619,0.758-0.92c0.09-0.26,0.025-0.549,0.163-0.756c0.216-0.18,0.432-0.361,0.649-0.541
	c0.234-0.336,0.361-0.633,0.596-0.975c0.289-0.232,0.574-0.467,0.865-0.701h0.271c0.263,0.254,0.601,0.268,0.647,0.754
	c0.078,0.113,0.035,0.605-0.054,0.922c-0.192,0.686-0.405,1.582-0.216,2.381c0.38,0.225,0.773,0.486,1.135,0.756
	c0.505,0.375,0.712,1.041,1.354,1.299c0.676,0.271,1.027-0.432,1.784-0.27c0.767,0.16,1.751,0.094,2.541,0
	c0.103-0.012,0.307,0.09,0.38,0.107c0.564,0.131,1.375,0.045,1.893,0.053c0.203,0.252,0.282,0.297,0.271,0.816
	c0.045,0.053,0.021,0.014,0.056,0.105c0.682,0.338,1.151,0.906,1.677,1.408v0.645c-0.86,0.547-0.189,0.832,0,1.406v0.598
	c0.078,0.311,0.175,0.578,0.109,0.973c-0.275,0.092-0.458,0.311-0.758,0.377c-0.334,0.074-0.726-0.145-0.975-0.215
	c-0.234-0.018-0.468-0.037-0.703-0.053c-0.393-0.125-0.862-0.275-1.351-0.379c-0.578-0.127-2.064-0.166-2.598-0.057
	c-0.343,0.074-0.942-0.045-1.245-0.107c-0.7,0.037-1.407,0.072-2.107,0.107c-0.206,0.346-0.748,0.963-1.405,0.812
	c-0.297-0.066-0.681-0.26-1.137-0.164c-0.814,0.18-1.692,0.275-2.652,0.271c-0.117,0.188-0.282,0.33-0.43,0.486
	c-0.522-0.043-0.901-0.057-1.3-0.324c-0.092-0.059-0.154-0.227-0.271-0.27c-0.258-0.092-0.533,0.074-0.647,0.107
	c-0.288,0.076-0.5-0.121-0.705-0.16c-0.179,0.033-0.359,0.07-0.539,0.107c-0.266-0.037-0.545-0.283-0.759-0.379
	c-0.847-0.379-1.831-0.688-2.054-1.676c-0.121-0.537,0.259-1.725,0.433-2.057c0.059-0.115,0.229-0.248,0.269-0.381
	c0.121-0.369-0.169-0.873-0.269-1.135c-0.222-0.076-0.613-0.055-0.919-0.049c-0.234,0.188-0.465,0.166-0.812,0.266
	c-1.991,0.582-3.251-0.979-4.652-1.459c-0.917-0.314-1.517,0.402-2.272,0.217c-0.88-0.215-1.316-0.66-2.108-0.922
	c-0.746-0.242-1.714,0.086-2.326-0.379c-0.092-0.123-0.181-0.25-0.271-0.377c-0.128-0.076-0.267-0.021-0.377-0.107
	c-0.082-0.064-0.273-0.35-0.325-0.432c-0.054-0.164-0.11-0.326-0.162-0.488c-0.186-0.246-0.729-0.467-0.922-0.705
	c-0.145-0.176-0.125-0.459-0.269-0.648c-0.111-0.145-0.83-0.512-1.029-0.646c-0.144-0.182-0.289-0.361-0.433-0.543
	c-0.26-0.164-1.046-0.27-1.458-0.271c-0.273,0.266-0.619,0.471-0.92,0.705c-0.175,0.137-0.192,0.406-0.379,0.539
	c-0.301,0.221-1.446,0.012-1.948,0.164c-0.382,0.117-0.928,0.318-1.352,0.432h-0.81c-0.342,0.055-0.687,0.107-1.029,0.164
	c-0.267,0.078-0.605,0.256-0.919,0.326c-0.186,0.037-0.302-0.047-0.432-0.061c-0.253,0.021-0.505,0.039-0.757,0.061
	c-0.22-0.047-0.615-0.074-0.918-0.061c-0.535,0.033-2.198,0.297-2.543,0.111c-0.355-0.123-0.617-0.514-0.919-0.705
	c-0.281-0.172-0.793-0.193-1.136-0.268c-0.848-0.189-1.922,0.072-2.542,0.217c-0.601,0.139-2.839-0.305-3.192-0.488
	c-1.012-0.521-2.202-1.141-3.083-1.838c-0.52-0.412-1.062-1.088-1.46-1.623c-0.146-0.197-0.298-0.504-0.487-0.648
	c-0.219-0.168-1.451-0.68-1.73-0.76c-0.735-0.203-1.819-0.131-2.543-0.105h-1.514c-0.344,0.082-0.856,0.16-1.298,0.055
	c-0.364-0.09-0.875-0.125-1.244-0.271c-0.275-0.109-0.535-0.342-0.812-0.434c-0.526-0.176-1.083-0.047-1.514-0.27
	c-0.118-0.062-0.216-0.262-0.324-0.324c-0.324-0.184-0.593-0.229-0.867-0.434c-0.136-0.102-0.212-0.305-0.378-0.377
	c-0.402-0.182-1.114-0.193-1.515-0.273c-0.591-0.111-1.61,0.617-2.163,0.758c-0.26,0.066-0.529-0.072-0.704-0.107
	c-0.181,0.02-0.36,0.037-0.541,0.055c-0.191-0.049-0.511-0.125-0.758-0.217c-0.534-0.201-1-0.668-1.567-0.811
	c-1.009-0.256-1.381,0.43-2.325,0.217c-0.135-0.207-0.252-0.248-0.271-0.596c0.065-0.109-0.014-0.336,0.053-0.49
	c0.092-0.199,0.48-0.785,0.705-0.859c0.607-0.439,1.696-0.266,2.541-0.49c0.578-0.152,1.043-0.457,1.58-0.697
	c0.138-0.059,0.554-0.27,0.708-0.316c0.616-0.203,1.274-0.031,1.607-0.5c0.243-0.322-0.079-0.594,0-0.92
	c0.071-0.297,0.399-1.352,0.595-1.514c0.672-0.562,1.938-0.387,2.812-0.758c0.615-0.262,1.396-0.615,2.001-0.865
	c0.521-0.215,1.044-0.234,1.569-0.434c0.334-0.125,0.684-0.371,1.081-0.432c0.158-0.025,0.236,0.084,0.326,0.107h0.865
	c0.167,0.045,0.324,0.215,0.593,0.162c0.652-0.125,1.372-0.053,2.11-0.217h0.919c1.293-0.322,2.884-0.34,4.166-0.701
	c1.455-0.414,3.206-0.768,4.598-1.189c0.643-0.199,1.359-0.09,1.947-0.326c0.739-0.297,1.453-0.748,2.109-1.135
	c0.293-0.174,0.582-0.205,0.865-0.381c0.216-0.133,0.522-0.385,0.757-0.486c0.183-0.076,0.81-0.17,0.974-0.217h0.704
	c0.655-0.178,1.483-0.461,2.217-0.648c0.542-0.035,1.082-0.07,1.623-0.109c0.912-0.252,1.35-1.072,2.381-1.297
	c0.725-0.158,0.904,0.705,1.568,0.541c0.205-0.051,0.458-0.242,0.649-0.324c0.295-0.123,0.593-0.086,0.92-0.217
	c0.376-0.152,0.791-0.512,1.188-0.703c0.202-0.096,0.364-0.029,0.596-0.107c0.683-0.234,1.365-0.592,2.111-0.758
	c0.181,0.018,0.359,0.037,0.542,0.055c0.581-0.129,1.271-0.305,1.783-0.434c0.502-0.125,0.715,0.297,0.975,0.434
	c0.285,0.15,0.614,0.109,0.92,0.271c0.199,0.105,0.465,0.334,0.702,0.432c0.181,0.035,0.359,0.072,0.541,0.107
	c0.19,0.082,0.329,0.314,0.541,0.379c0.708,0.207,1.218-0.283,1.623-0.432c0.302-0.111,0.635-0.199,0.866-0.271h0.972
	c0.309-0.123,0.504-0.365,0.973-0.432c0.722,0.771,1.392,0.139,2.11-0.109c0.315-0.107,0.638-0.104,0.921-0.271
	c0.438-0.254,0.476-0.662,0.757-1.08c0.107-0.088,0.216-0.182,0.323-0.27c0.018-0.109,0.037-0.217,0.056-0.326
	c0.087-0.072,0.178-0.145,0.271-0.217c0.191-0.291,0.17-0.572,0.27-0.973c0.077-0.314,0.352-0.926,0.216-1.355
	c-0.065-0.197-0.192-0.223-0.216-0.537c0.287-0.191,0.198-0.266,0.323-0.648c0.298-0.906,0.155-0.939-0.214-1.678
	c-0.077-0.148-0.029-0.299-0.109-0.434c-0.5-0.842-1.404-1.373-2.382-1.732c-0.25-0.033-0.502-0.068-0.756-0.105
	c-0.762-0.283-1.014-1.006-1.621-1.408c-0.237-0.152-0.619-0.129-0.814-0.322c-0.508-0.511-0.505-1.994-1.244-2.273
	c-0.205-0.122-1.262-0.044-1.677-0.16c-0.572-0.164-0.705-0.736-1.407-0.758c-0.406,0.421-0.943,0.775-1.298,1.244
	c-0.139,0.184-0.248,0.459-0.432,0.594c-0.139,0.104-0.272,0.071-0.432,0.163c-0.266,0.152-0.409,0.521-0.65,0.705
	c-0.271,0.203-0.663,0.378-0.864,0.646c-0.308,0.402-0.957,1.459-1.354,1.676c-0.213,0.119-0.515,0.041-0.704,0.164
	c-0.341,0.227-0.34,0.701-0.865,0.758c-0.411-0.389-0.781-0.805-1.189-1.191c0.028-0.9,0.664-1.064,1.189-1.459
	c0.674-0.507,1.102-1.313,1.838-1.785c0.441-0.279,1.111-0.292,1.191-0.918c-0.741,0.008-1.175,0.454-1.677,0.702
	c-0.393,0.193-0.818,0.112-1.245,0.27c-0.331,0.123-0.749,0.334-1.136,0.434c-0.456,0.118-2.527-0.29-2.812-0.434
	c-0.259-0.13-0.706-0.591-1.083-0.54c-1.165,0.159-1.828,1.069-2.92,1.244c-0.306,0.047-0.559-0.24-0.758-0.324
	c-0.616-0.264-1.198-0.498-1.837-0.756c-0.46-0.189-1.066-0.1-1.569-0.273c-0.591-0.203-1.146-0.603-1.676-0.811
	c-0.308-0.12-0.739-0.12-0.974-0.325c-0.125-0.108-0.201-0.314-0.325-0.431c-0.171-0.164-0.403-0.237-0.595-0.379
	c-0.234-0.175-0.404-0.478-0.649-0.649c-0.462-0.327-1.273-0.535-1.623-0.974c-0.237-0.339-0.047-0.866-0.594-0.919
	c-0.241-0.144-0.614,0.092-0.973,0c-0.162-0.042-0.543-0.18-0.706-0.217c-0.143-0.032-1.902,0.311-2.055,0.378
	c-0.19,0.087-0.375,0.325-0.539,0.432c-0.352,0.232-0.797,0.198-1.028,0.543c-0.068,0.098-0.188,0.344-0.218,0.432v0.648
	c-0.061,0.117-0.583,0.376-0.702,0.54c-0.432,0.592-0.884,1.229-1.406,1.73c-0.283,0.274-0.685,0.383-0.92,0.704
	c-0.514,0.704-0.888,1.521-1.407,2.218c-0.459,0.617-1.196,1.072-1.731,1.623c-0.435,0.447-0.873,1.814-1.352,2.109
	c-0.349,0.215-1.154,0.035-1.516,0.27c-0.24,0.158-0.922,0.762-1.027,1.029c-0.1,0.252-0.027,0.508-0.163,0.703
	c-0.293,0.418-0.832,0.49-1.351,0.701c-0.302,0.123-0.582,0.309-0.975,0.217c-0.562-0.127-1.223-0.162-1.406-0.648
	c-0.321-0.379,0.159-1.543,0.433-1.732c0.738-0.506,1.809-0.568,2.488-1.133c0.288-0.238,0.489-1.051,0.704-1.406
	c0.143-0.109,0.288-0.217,0.432-0.326c0.572-0.799,0.645-0.508,1.731-0.701c0.281-0.582,0.569-0.42,1.028-0.76
	c0.444-0.328,0.634-0.984,1.081-1.298c0.19-0.131,0.499-0.083,0.703-0.216c0.211-0.135,0.884-1.237,1.082-1.514
	C25.014,52.6,26,51.73,26.693,50.619c0.19-0.307,0.375-0.747,0.486-1.082c0.019-0.163,0.038-0.324,0.056-0.487
	c0.215-0.235,0.431-0.471,0.648-0.703c0.319-0.601,0.188-0.957,0.866-1.246c0.209-0.086,0.353-0.036,0.594-0.105
	c0.432-0.131,1.06-0.401,1.515-0.488c0.18,0.017,0.361,0.035,0.541,0.053c0.084-0.025,0.2-0.181,0.27-0.216
	c0.636-0.321,1.68-0.454,2.381-0.162c0.256,0.106,0.429,0.355,0.649,0.486c0.38,0.23,1.063,0.363,1.189,0.812
	c0.091,0.324-0.245,0.505-0.271,0.866c0.064,0.058,0.09,0.109,0.163,0.162c0.164,0.125,0.63,0.257,0.864,0.27
	c0.126-0.017,0.253-0.035,0.379-0.053c0.53,0.112,0.899,0.554,1.353,0.703c0.406,0.134,0.775-0.024,1.082,0.162
	c0.492,0.299,0.582,0.658,0.865,1.191c0.203,0.383,1.164,1.427,1.516,1.675c0.518,0.368,1.469,0.418,2.217,0.541
	c0.342-0.018,0.684-0.036,1.026-0.054c0.327,0.079,0.78,0.356,1.298,0.218c0.43-0.118,1.05-0.31,1.514-0.489
	c0.206-0.077,0.44-0.307,0.65-0.377c0.718-0.247,1.368,0.073,1.947,0.216c0.648,0.16,1.212-0.249,1.57-0.434
	c0.277-0.142,0.58-0.131,0.701-0.433c0.057-0.083,0.057-0.219,0.056-0.377c-0.56,0.008-0.803,0.265-1.245,0.377
	c-0.518,0.136-1-0.109-1.513,0c-0.565,0.123-1.315,0.17-1.84,0.056c-0.036-0.056-0.071-0.108-0.106-0.163
	c-0.164-0.199-0.083-0.477-0.056-0.756c0.318-0.241,0.488-0.61,0.92-0.76c0.405-0.137,0.843-0.077,1.19-0.215
	c0.112-0.391,0.053-0.512,0.595-0.486c0.238-0.144,0.685,0.081,0.921,0.108c0.486,0.035,0.973,0.071,1.458,0.108
	c0.555,0.143,1.064,0.406,1.732,0.432c0.018-0.055,0.037-0.109,0.053-0.162c0.181-0.391-0.353-0.951,0.324-1.406
	c0.19-0.138,0.408-0.039,0.704-0.107c1.616-0.383,2.135,1.066,3.678,0.648c1.844-0.498,4.092-0.7,5.895-1.245
	c0.456-0.137,0.968-0.114,1.353-0.27c0.127-0.215,0.353-0.521,0.434-0.758c0.018-0.198,0.035-0.396,0.054-0.594
	c0.045-0.128,0.206-0.225,0.271-0.325c0.318-0.493,0.554-1.025,0.595-1.785c-0.231-0.242-0.401-0.655-0.704-0.81
	c-0.958-0.486-2.379,0.457-3.083,0.755c-0.325,0.09-0.649,0.182-0.974,0.272c-0.255,0.146-0.417,0.518-0.649,0.648
	c-0.31,0.176-0.854-0.055-1.244,0.054c-0.653,0.183-1.262,0.529-2.001,0.703c-0.818,0.195-2.207-0.898-2.921-1.082
	c-0.412-0.107-0.912,0.118-1.242,0.054c-0.124-0.023-0.306-0.146-0.489-0.108c-0.198,0.04-0.359,0.14-0.539,0.108
	c-0.506-0.088-1.521,0.091-2.003,0.162c-0.433,0.064-0.871-0.305-1.407-0.107c-0.409,0.15-1.002,1.023-1.567,0.648
	c-0.21-0.068-0.771-0.677-0.811-0.92c-0.04-0.069,0.02-0.176,0.054-0.325c0.136-0.087,0.272-0.273,0.433-0.324
	c0.409-0.13,0.848,0.125,1.297,0c0.122-0.034,0.309-0.193,0.431-0.216c0.351-0.066,0.907,0.216,1.408,0.108
	c0.282-0.061,0.852,0.05,1.189-0.054c1.405-0.437,3.236-0.188,4.653,0.107c0.735,0.154,0.702-0.474,1.405-0.485
	c0.149,0.096,1.532,0.254,1.838,0.162c0.382-0.117,0.574-0.602,0.919-0.759c0.216-0.035,0.432-0.071,0.651-0.106
	c0.742-0.25,1.32-0.561,1.891-0.974c0.326-0.236,0.282-0.83,0.596-1.083c0.21-0.157,0.971-0.42,1.242-0.487
	c0.128-0.267,0.343-0.485,0.435-0.756c0.512-1.532,0.057-4.569-0.217-5.95c0.018-0.162,0.037-0.325,0.054-0.487
	c0.012-0.439-0.093-0.765-0.054-1.137c0.034-0.329,0.187-0.619,0.11-1.027c-0.095-0.032-0.174-0.047-0.328-0.054
	c-0.219,0.172-0.581,0.215-0.756,0.432c-0.22,0.275-0.363,0.826-0.647,1.027c-0.36,0.258-0.718,0.407-0.973,0.759
	c-0.224,0.303-0.379,0.557-0.596,0.864c-0.199,0.163-0.397,0.325-0.595,0.487c-0.088,0.113-0.107,0.243-0.218,0.323
	c-0.235,0.181-0.565,0.319-0.756,0.542c-0.242,0.284-0.463,0.699-0.758,0.919c-0.441,0.329-0.993,0.406-1.351,0.812
	c-0.139,0.158-0.21,0.422-0.38,0.542c-0.192,0.136-0.405,0.14-0.541,0.325c-0.307,0.414-0.995,1.322-1.405,1.568
	c-0.248,0.148-1.929,0.391-2.166,0.379c-0.181-0.222-0.484-0.24-0.593-0.541c-0.291-0.494,0.37-1.188,0.542-1.46
	c0.035-0.109,0.071-0.217,0.107-0.325c0.194-0.283,1.239-0.812,1.623-0.919h0.431c0.388-0.129,0.458-0.611,0.704-0.757
	c0.158-0.092,0.287,0.07,0.543,0c0.287-0.077,0.531-0.319,0.755-0.487c1.257-0.947,2.243-2.212,3.407-3.245
	c0.23-0.205,0.505-0.302,0.757-0.487c0.767-0.557,2.092-2.651,2.487-3.623c0.343-0.841,0.034-1.884,0.271-2.868
	c0.343-1.405,0.295-2.598,0-4.001c-0.054-0.019-0.108-0.036-0.161-0.055c-0.418-0.221-0.75,0.893-1.135,1.027h-0.598
	c-0.204,0.057-0.614,0.153-0.811,0.271c-0.059,0.034-0.155,0.189-0.217,0.215c-0.423,0.184-0.851,0.154-1.242,0.38
	c-0.302,0.173-0.537,0.55-0.811,0.755c-0.317,0.239-0.738,0.456-1.082,0.649c-0.343,0.194-1.241,0.405-1.621,0.163
	c-0.625-0.231-0.894-1.652-0.273-2.001c0.316-0.177,0.616-0.061,1.028-0.161c0.489-0.12,0.954-0.247,1.459-0.434
	c0.646-0.235,1.188-0.873,1.785-1.136c0.561-0.247,1.31-0.35,1.514-0.919c0.191-0.4-0.562-0.539-0.811-0.703
	c-0.146-0.099-0.113-0.231-0.217-0.379c-0.136-0.196-0.767-0.569-1.135-0.486c-0.678,0.153-1.355,0.515-2.054,0.703
	c-0.409,0.109-0.916-0.123-1.244-0.054c-0.297,0.062-1.173,0.314-1.731,0.163c-0.23-0.064-0.455-0.262-0.705-0.325
	c-0.524-0.132-1.136,0.171-1.514,0.271c-0.651,0.174-1.037-0.199-1.676-0.055c-0.595,0.134-1.26,0.246-1.838,0.379
	c-0.812,0.187-1.899-0.012-2.598-0.163c-0.37-0.081-0.659,0.119-0.92,0.163c-0.107-0.018-0.215-0.037-0.324-0.056
	c-0.645,0.147-0.982,0.669-1.569,0.867c-0.476,0.161-0.903,0.119-1.404,0.27c-0.47,0.163-0.938,0.325-1.406,0.486
	c-0.519,0.148-1.082,0.052-1.352,0.433c-0.116,0.144-0.116,0.376-0.108,0.649c0.711,0.53,0.797,1.868,0.27,2.651
	c-0.251,0.373-0.772,0.53-0.975,0.974c-0.016,0.179-0.036,0.36-0.054,0.541c-0.141,0.467-0.355,1.127-0.485,1.569
	c-0.116,0.391-0.034,0.585-0.218,0.864c-0.899,1.381-2.267,2.374-3.569,3.354c-0.485,0.366-0.728,1.062-1.298,1.353
	c-0.235,0.036-0.469,0.071-0.703,0.109c-0.178,0.065-0.423,0.211-0.649,0.27H32.75c-0.621,0.164-1.487,0.164-2.272,0.162
	c-0.233-0.018-0.468-0.035-0.701-0.055c-0.363,0.062-0.781-0.086-1.191,0c-1.1,0.234-3.542,0.037-4.489-0.377
	c-0.119-0.053-0.206-0.218-0.325-0.271c-0.462-0.209-1.066-0.321-1.568-0.271"/>
<g>
	<g>
		<path d="M103.74,23.007v-5.725h5.556V9.481h6.735v7.801h7.408v5.725h-7.408v11.785c0,2.694,0.786,4.377,3.76,4.377
			c1.178,0,2.806-0.225,3.648-0.841v5.667c-1.403,0.673-3.761,0.898-5.332,0.898c-7.128,0-8.812-3.199-8.812-9.541V23.007H103.74z"
			/>
		<path d="M135.449,21.042h0.112c1.066-2.245,3.76-4.433,7.913-4.433c7.24,0,9.821,5.107,9.821,10.607V44.22h-6.735V30.583
			c0-2.974-0.224-7.913-4.938-7.913c-4.434,0-6.174,3.255-6.174,6.847V44.22h-6.734V1.793h6.734V21.042z"/>
		<path d="M163.511,33.108c0.449,3.984,3.479,6.398,7.239,6.398c3.367,0,5.556-1.571,7.24-3.648l4.826,3.648
			c-3.143,3.873-7.127,5.388-11.392,5.388c-8.138,0-14.648-5.668-14.648-14.143c0-8.475,6.51-14.143,14.648-14.143
			c7.52,0,12.627,5.275,12.627,14.647v1.852H163.511z M177.316,28.058c-0.056-3.929-2.637-6.398-6.847-6.398
			c-3.984,0-6.454,2.525-6.958,6.398H177.316z"/>
		<path d="M206.725,33.108c0.448,3.984,3.479,6.398,7.239,6.398c3.367,0,5.556-1.571,7.239-3.648l4.827,3.648
			c-3.143,3.873-7.128,5.388-11.394,5.388c-8.138,0-14.647-5.668-14.647-14.143c0-8.475,6.51-14.143,14.647-14.143
			c7.521,0,12.628,5.275,12.628,14.647v1.852H206.725z M220.529,28.058c-0.056-3.929-2.637-6.398-6.847-6.398
			c-3.984,0-6.454,2.525-6.958,6.398H220.529z"/>
		<path d="M227.097,17.282h7.352l7.184,18.856h0.112l7.239-18.856h6.903L245.279,44.22h-7.184L227.097,17.282z"/>
		<path d="M262.398,33.108c0.449,3.984,3.479,6.398,7.239,6.398c3.367,0,5.556-1.571,7.239-3.648l4.827,3.648
			c-3.143,3.873-7.128,5.388-11.394,5.388c-8.137,0-14.646-5.668-14.646-14.143c0-8.475,6.51-14.143,14.646-14.143
			c7.521,0,12.628,5.275,12.628,14.647v1.852H262.398z M276.203,28.058c-0.056-3.929-2.637-6.398-6.846-6.398
			c-3.985,0-6.454,2.525-6.959,6.398H276.203z"/>
		<path d="M287.26,17.282h6.734v4.265h0.113c1.459-3.087,4.434-4.938,7.969-4.938c0.842,0,1.627,0.168,2.413,0.393v6.51
			c-1.123-0.28-2.188-0.505-3.255-0.505c-6.342,0-7.24,5.332-7.24,6.791V44.22h-6.734V17.282z"/>
		<path d="M335.075,17.282v24.525c0,9.708-4.713,15.882-15.208,15.882c-4.995,0-9.54-1.066-13.357-4.434l4.041-5.5
			c2.694,2.47,5.5,3.873,9.26,3.873c6.511,0,8.531-3.704,8.531-9.036v-1.964h-0.112c-1.965,2.638-5.444,3.929-8.812,3.929
			c-8.081,0-13.412-6.173-13.412-13.806c0-7.97,4.994-14.143,13.3-14.143c3.76,0,7.296,1.459,9.26,4.714h0.112v-4.041H335.075z
			 M312.739,30.695c0,4.266,3.368,7.801,7.913,7.801c4.995,0,8.025-3.423,8.025-7.913c0-4.658-3.086-7.913-7.969-7.913
			C315.995,22.67,312.739,25.925,312.739,30.695z"/>
		<path d="M339.286,17.282h6.734v4.265h0.113c1.459-3.087,4.433-4.938,7.969-4.938c0.842,0,1.627,0.168,2.413,0.393v6.51
			c-1.123-0.28-2.189-0.505-3.255-0.505c-6.342,0-7.24,5.332-7.24,6.791V44.22h-6.734V17.282z"/>
		<path d="M364.821,33.108c0.45,3.984,3.48,6.398,7.24,6.398c3.367,0,5.556-1.571,7.239-3.648l4.826,3.648
			c-3.142,3.873-7.127,5.388-11.393,5.388c-8.137,0-14.646-5.668-14.646-14.143c0-8.475,6.51-14.143,14.646-14.143
			c7.521,0,12.628,5.275,12.628,14.647v1.852H364.821z M378.627,28.058c-0.056-3.929-2.637-6.398-6.846-6.398
			c-3.985,0-6.454,2.525-6.96,6.398H378.627z"/>
		<path d="M395.353,33.108c0.447,3.984,3.478,6.398,7.239,6.398c3.366,0,5.555-1.571,7.239-3.648l4.827,3.648
			c-3.144,3.873-7.128,5.388-11.394,5.388c-8.138,0-14.647-5.668-14.647-14.143c0-8.475,6.51-14.143,14.647-14.143
			c7.521,0,12.627,5.275,12.627,14.647v1.852H395.353z M409.157,28.058c-0.056-3.929-2.638-6.398-6.847-6.398
			c-3.984,0-6.454,2.525-6.958,6.398H409.157z"/>
		<path d="M420.045,17.282h6.397v4.321h0.112c1.235-2.693,3.761-4.995,8.25-4.995c7.24,0,9.822,5.107,9.822,10.607V44.22h-6.735
			V30.583c0-2.974-0.225-7.913-4.938-7.913c-4.434,0-6.173,3.255-6.173,6.847V44.22h-6.735V17.282z"/>
	</g>
	<g>
		<path d="M151.513,75.356c-1.291-1.797-2.975-2.751-5.276-2.751c-1.796,0-3.928,0.842-3.928,2.862
			c0,4.827,14.535,0.898,14.535,11.393c0,6.398-6.117,8.644-11.617,8.644c-4.152,0-7.744-1.067-10.494-4.153l4.489-4.21
			c1.74,1.909,3.536,3.312,6.398,3.312c1.964,0,4.49-0.954,4.49-3.087c0-5.556-14.536-1.178-14.536-11.449
			c0-6.004,5.388-8.697,10.832-8.697c3.592,0,7.408,1.122,9.597,4.096L151.513,75.356z"/>
		<path d="M158.921,73.615v-5.724h5.556v-7.801h6.734v7.801h7.408v5.724h-7.408v11.786c0,2.693,0.786,4.378,3.761,4.378
			c1.178,0,2.806-0.226,3.647-0.842v5.667c-1.403,0.674-3.76,0.899-5.332,0.899c-7.127,0-8.811-3.2-8.811-9.542V73.615H158.921z"/>
		<path d="M200.731,91.126h-0.168c-1.908,3.03-5.051,4.378-8.643,4.378c-4.995,0-9.821-2.751-9.821-8.083
			c0-8.755,10.214-9.372,16.948-9.372h1.684v-0.729c0-3.311-2.582-5.051-6.174-5.051c-2.805,0-5.387,1.123-7.183,2.807l-3.536-3.536
			c2.975-3.029,7.184-4.32,11.448-4.32c11.505,0,11.505,8.306,11.505,12.121v15.49h-6.061V91.126z M200.339,82.764h-1.403
			c-3.704,0-10.102,0.28-10.102,4.153c0,2.469,2.525,3.535,4.714,3.535c4.602,0,6.791-2.413,6.791-6.174V82.764z"/>
		<path d="M210.329,73.615v-5.724h5.556v-7.801h6.735v7.801h7.407v5.724h-7.407v11.786c0,2.693,0.785,4.378,3.76,4.378
			c1.179,0,2.806-0.226,3.647-0.842v5.667c-1.403,0.674-3.76,0.899-5.331,0.899c-7.128,0-8.812-3.2-8.812-9.542V73.615H210.329z"/>
		<path d="M240.691,83.718c0.448,3.984,3.479,6.397,7.24,6.397c3.366,0,5.555-1.571,7.239-3.647l4.825,3.647
			c-3.143,3.873-7.126,5.389-11.392,5.389c-8.138,0-14.648-5.669-14.648-14.144s6.511-14.142,14.648-14.142
			c7.52,0,12.627,5.275,12.627,14.647v1.852H240.691z M254.497,78.666c-0.056-3.928-2.638-6.397-6.848-6.397
			c-3.983,0-6.453,2.526-6.958,6.397H254.497z"/>
		<path d="M299.73,75.974c-1.571-1.629-3.311-2.694-5.106-2.694c-4.939,0-7.913,3.872-7.913,8.081s2.974,8.081,7.913,8.081
			c2.076,0,3.985-0.897,5.219-2.524l4.49,4.825c-2.75,2.75-7.353,3.762-9.709,3.762c-8.138,0-14.647-5.669-14.647-14.144
			s6.51-14.142,14.647-14.142c3.424,0,7.184,1.234,9.766,4.096L299.73,75.974z"/>
		<path d="M321.114,67.219c8.137,0,14.647,5.667,14.647,14.142s-6.511,14.144-14.647,14.144s-14.647-5.669-14.647-14.144
			S312.978,67.219,321.114,67.219z M321.114,89.441c4.938,0,7.913-3.872,7.913-8.081s-2.975-8.081-7.913-8.081
			s-7.913,3.872-7.913,8.081S316.176,89.441,321.114,89.441z"/>
		<path d="M339.467,52.402h6.733V94.83h-6.733V52.402z"/>
		<path d="M353.833,52.402h6.734V94.83h-6.734V52.402z"/>
		<path d="M371.68,83.718c0.449,3.984,3.479,6.397,7.24,6.397c3.367,0,5.556-1.571,7.239-3.647l4.826,3.647
			c-3.142,3.873-7.127,5.389-11.393,5.389c-8.137,0-14.646-5.669-14.646-14.144s6.51-14.142,14.646-14.142
			c7.521,0,12.628,5.275,12.628,14.647v1.852H371.68z M385.485,78.666c-0.056-3.928-2.637-6.397-6.846-6.397
			c-3.985,0-6.454,2.526-6.96,6.397H385.485z"/>
		<path d="M424.378,67.892v24.524c0,9.709-4.714,15.883-15.209,15.883c-4.994,0-9.541-1.066-13.356-4.435l4.041-5.499
			c2.693,2.469,5.499,3.872,9.259,3.872c6.51,0,8.53-3.704,8.53-9.036v-1.963h-0.111c-1.965,2.637-5.443,3.928-8.811,3.928
			c-8.081,0-13.414-6.173-13.414-13.806c0-7.969,4.995-14.142,13.302-14.142c3.76,0,7.295,1.459,9.26,4.714h0.112v-4.041H424.378z
			 M402.042,81.305c0,4.265,3.366,7.801,7.913,7.801c4.995,0,8.025-3.424,8.025-7.913c0-4.658-3.088-7.913-7.969-7.913
			C405.297,73.279,402.042,76.534,402.042,81.305z"/>
		<path d="M434.705,83.718c0.449,3.984,3.479,6.397,7.24,6.397c3.367,0,5.556-1.571,7.239-3.647l4.826,3.647
			c-3.142,3.873-7.127,5.389-11.393,5.389c-8.137,0-14.646-5.669-14.646-14.144s6.51-14.142,14.646-14.142
			c7.521,0,12.628,5.275,12.628,14.647v1.852H434.705z M448.512,78.666c-0.057-3.928-2.638-6.397-6.847-6.397
			c-3.985,0-6.454,2.526-6.96,6.397H448.512z"/>
	</g>
</g>
</svg>
